<svg width="100" height="100" xmlns="http://www.w3.org/2000/svg">
 <g>
  <title>Layer 1</title>
  <path stroke="#ffffff" fill="#2ba51d" stroke-width="4" opacity="undefined" d="m49.94619,96.36029c-44.57966,-0.4914 -1.30383,4.6642 -13.03823,-22.1129c-11.73439,-26.7771 5.83479,-33.90644 13.03823,-33.90644c7.20344,0 24.33801,10.07772 13.03823,33.41504c-11.29978,23.33731 31.54143,23.09569 -13.03823,22.6043z" id="svg_1"/>
  <g stroke="null" id="svg_2">
   <path stroke="#ffffff" fill="#c1223a" stroke-width="4" opacity="undefined" d="m49.15488,54.41188c-23.33459,0 -34.14216,-24.51282 -18.82196,-33.83876c15.3202,-9.32594 8.61898,0.32853 19.25968,0.32853c10.6407,0 5.25264,-9.65448 20.57284,2.95679c15.3202,12.61126 2.32402,30.55345 -21.01056,30.55345l-0.00001,-0.00001z" id="svg_4"/>
   <path stroke="#2ba51d" fill="#6b1313" stroke-width="0" opacity="undefined" d="m50.13974,44.07761c-13.48226,0 -24.40289,-6.84994 -24.40289,-10.60621c0,-3.75627 3.59977,3.5354 24.40289,3.5354c20.80313,0 24.40289,-7.29168 24.40289,-3.5354c0,3.75627 -10.92063,10.60621 -24.40289,10.60621z" id="svg_5"/>
   <path stroke="#ffffff" fill="#f2687c" stroke-width="0" opacity="undefined" d="m38.86846,31.02381c-1.81375,0 -13.56931,1.19449 -10.943,-2.44759c2.62632,-3.64208 9.12924,-6.79885 10.943,-6.79885c1.81375,0 3.2829,2.06896 3.2829,4.62322c0,2.55427 -1.46914,4.62322 -3.2829,4.62322z" id="svg_7"/>
  </g>
 </g>

</svg>