<svg width="100.00000000000001" height="100.00000000000001" xmlns="http://www.w3.org/2000/svg">
 <g>
  <title>Layer 1</title>
  <path fill="#c1223a" stroke-width="4" opacity="undefined" d="m48.94986,68.95006c-28.99543,0 -42.42486,-24.51282 -23.38806,-33.83876c19.03679,-9.32594 10.70989,0.32853 23.93197,0.32853c13.22208,0 6.5269,-9.65448 25.5637,2.95679c19.03679,12.61126 2.88782,30.55345 -26.1076,30.55345l-0.00001,-0.00001z" id="svg_4" stroke="#ffffff"/>
  <path stroke="#2ba51d" fill="#6b1313" stroke-width="0" opacity="undefined" d="m50.17365,55.11582c-16.75298,0 -30.3229,-4.11346 -30.3229,-6.36913c0,-2.25568 4.47305,2.12304 30.3229,2.12304c25.84985,0 30.3229,-4.37873 30.3229,-2.12304c0,2.25568 -13.56991,6.36913 -30.3229,6.36913z" id="svg_5"/>
  <path fill="#f2687c" stroke-width="0" opacity="undefined" d="m36.16801,45.56199c-2.25376,0 -16.86115,1.19449 -13.59771,-2.44759c3.26345,-3.64208 11.34394,-6.79885 13.59771,-6.79885c2.25376,0 4.07931,2.06896 4.07931,4.62322c0,2.55427 -1.82555,4.62322 -4.07931,4.62322z" id="svg_7" stroke="#ffffff"/>
 </g>

</svg>