<svg width="100" height="100" xmlns="http://www.w3.org/2000/svg">
 <g>
  <title>Layer 1</title>
  <path stroke="#ffffff" fill="#2ba51d" stroke-width="4" opacity="undefined" d="m49.95399,96.36029c-38.12124,-0.4914 -1.11494,4.6642 -11.14933,-22.1129c-10.03439,-26.7771 4.98948,-33.90644 11.14933,-33.90644c6.15985,0 20.81207,10.07772 11.14933,33.41504c-9.66274,23.33731 26.97191,23.09569 -11.14933,22.6043z" id="svg_1"/>
  <g id="svg_2">
   <path fill="#c1223a" stroke-width="4" opacity="undefined" d="m47.07057,54.41188c-28.99543,0 -42.42486,-24.51282 -23.38806,-33.83876c19.03679,-9.32594 10.70989,0.32853 23.93197,0.32853c13.22208,0 6.5269,-9.65448 25.5637,2.95679c19.03679,12.61126 2.88782,30.55345 -26.1076,30.55345l-0.00001,-0.00001z" id="svg_4" stroke="#ffffff"/>
   <path fill="#6b1313" stroke-width="0" opacity="undefined" d="m48.29436,44.07761c-16.75298,0 -30.3229,-6.84994 -30.3229,-10.60621c0,-3.75627 4.47305,3.5354 30.3229,3.5354c25.84985,0 30.3229,-7.29168 30.3229,-3.5354c0,3.75627 -13.56991,10.60621 -30.3229,10.60621z" id="svg_5" stroke="#2ba51d"/>
   <path fill="#f2687c" stroke-width="0" opacity="undefined" d="m34.28872,31.02381c-2.25376,0 -16.86115,1.19449 -13.59771,-2.44759c3.26345,-3.64208 11.34394,-6.79885 13.59771,-6.79885c2.25376,0 4.07931,2.06896 4.07931,4.62322c0,2.55427 -1.82555,4.62322 -4.07931,4.62322z" id="svg_7" stroke="#ffffff"/>
  </g>
 </g>

</svg>