<svg width="100" height="100" xmlns="http://www.w3.org/2000/svg">
 <g>
  <title>Layer 1</title>
  <path transform="rotate(-20 71.9584 51.284)" fill="#2c961e" stroke-width="4" opacity="undefined" d="m85.78413,67.86156c-2.54746,1.99029 -18.01007,3.56532 -15.06125,-9.77342c2.94882,-13.33872 -18.8815,-21.08733 -11.41299,-24.11205c7.46853,-3.02473 22.67109,6.13001 20.40255,16.60996c-2.26854,10.47995 8.61915,15.28521 6.07168,17.27551l0.00001,0z" id="svg_12" stroke="#ffffff"/>
  <path transform="rotate(20 28.6389 52.2661)" fill="#2c961e" stroke-width="4" opacity="undefined" d="m14.74615,68.75278c2.83654,2.21615 19.47545,4.7102 15.58449,-9.36462c-3.89097,-14.07481 19.05106,-20.95485 10.88974,-24.52086c-8.16133,-3.566 -23.93116,5.14554 -20.9258,16.20116c3.00536,11.05561 -8.38498,15.46816 -5.54844,17.68432l0.00001,0z" id="svg_3" stroke="#ffffff"/>
  <path fill="#2ba51d" stroke-width="4" opacity="undefined" d="m50.06206,96.34662c-27.89558,-0.54391 -6.31609,4.16258 -8.15863,-24.47588c-1.84254,-28.63846 -13.84961,-38.0297 8.15863,-37.52968c22.00824,0.50002 10.72925,10.15459 8.15863,36.98577c-2.57062,26.83118 19.73695,25.5637 -8.15863,25.01979z" id="svg_1" stroke="#ffffff"/>
  <path fill="#c1223a" stroke-width="4" opacity="undefined" d="m47.07057,43.41196c-28.99543,0 -42.42486,-24.51282 -23.38806,-33.83876c19.03679,-9.32594 10.70989,0.32853 23.93197,0.32853c13.22208,0 6.5269,-9.65448 25.5637,2.95679c19.03679,12.61126 2.88782,30.55345 -26.1076,30.55345l-0.00001,-0.00001z" id="svg_4" stroke="#ffffff"/>
  <path fill="#6b1313" stroke-width="0" opacity="undefined" d="m48.29436,33.07769c-16.75298,0 -30.3229,-6.84994 -30.3229,-10.60621c0,-3.75627 4.47305,3.5354 30.3229,3.5354c25.84985,0 30.3229,-7.29168 30.3229,-3.5354c0,3.75627 -13.56991,10.60621 -30.3229,10.60621z" id="svg_5" stroke="#2ba51d"/>
  <path fill="#f2687c" stroke-width="0" opacity="undefined" d="m34.28872,20.02389c-2.25376,0 -16.86115,1.19449 -13.59771,-2.44759c3.26345,-3.64208 11.34394,-6.79885 13.59771,-6.79885c2.25376,0 4.07931,2.06896 4.07931,4.62322c0,2.55427 -1.82555,4.62322 -4.07931,4.62322z" id="svg_7" stroke="#ffffff"/>
  <path stroke="#2ba51d" fill="#4f0d0d" stroke-width="0" opacity="undefined" d="m48.26882,33.78983c-12.22591,0 -11.55805,-1.07429 -11.01414,-5.43908c0.54391,-4.36479 5.31512,-2.17563 10.19828,-2.17563c4.88315,0 11.83,-2.46111 12.91782,2.99149c1.08782,5.4526 0.12396,4.62322 -12.10196,4.62322z" id="svg_10"/>
  <path stroke="#2ba51d" fill="#f754be" stroke-width="0" opacity="undefined" d="m49.2462,43.83717c-4.80803,0 -8.70253,-3.13572 -8.70253,-7.00698c0,-3.87125 -11.33492,-5.11321 8.43058,-5.87071c19.7655,-0.75751 8.97449,1.99945 8.97449,5.87071c0,3.87125 -3.8945,7.00698 -8.70253,7.00698l-0.00001,0z" id="svg_6"/>
  <ellipse fill="#b23a88" stroke-width="0" cx="49.62859" cy="39.37502" id="svg_11" rx="0.95184" ry="3.94333" opacity="undefined" stroke="#2ba51d"/>
 </g>

</svg>