<svg width="100" height="100" xmlns="http://www.w3.org/2000/svg">
 <g>
  <title>Layer 1</title>
  <g stroke="null" id="svg_13">
   <path stroke="#ffffff" id="svg_12" d="m84.78409,68.8616c-2.54746,1.99029 -18.01007,3.56532 -15.06125,-9.77342c2.94882,-13.33872 -18.8815,-21.08733 -11.41299,-24.11205c7.46853,-3.02473 22.67109,6.13001 20.40255,16.60996c-2.26854,10.47995 8.61915,15.28521 6.07168,17.27551z" opacity="undefined" stroke-width="4" fill="#2c961e"/>
   <path stroke="#ffffff" id="svg_3" d="m15.74619,69.75282c2.83654,2.21615 19.47545,4.7102 15.58449,-9.36462c-3.89097,-14.07481 19.05106,-20.95485 10.88974,-24.52086c-8.16133,-3.566 -23.93116,5.14554 -20.9258,16.20116c3.00536,11.05561 -8.38498,15.46816 -5.54844,17.68432z" opacity="undefined" stroke-width="4" fill="#2c961e"/>
   <path stroke="#ffffff" id="svg_1" d="m50.06206,96.34662c-27.89558,-0.54391 -0.81587,5.16262 -8.15863,-24.47588c-7.34276,-29.6385 3.6511,-37.52968 8.15863,-37.52968c4.50753,0 15.22943,11.15463 8.15863,36.98577c-7.0708,25.83114 19.73695,25.5637 -8.15863,25.01979z" opacity="undefined" stroke-width="4" fill="#2ba51d"/>
   <path stroke="#ffffff" id="svg_4" d="m47.07057,41.41188c-28.99543,0 -42.42486,-24.51282 -23.38806,-33.83876c19.03679,-9.32594 10.70989,0.32853 23.93197,0.32853c13.22208,0 6.5269,-9.65448 25.5637,2.95679c19.03679,12.61126 2.88782,30.55345 -26.1076,30.55345z" opacity="undefined" stroke-width="4" fill="#c1223a"/>
   <path stroke="#2ba51d" id="svg_5" d="m48.29436,31.07761c-16.75298,0 -30.3229,-6.84994 -30.3229,-10.60621c0,-3.75627 4.47305,3.5354 30.3229,3.5354c25.84985,0 30.3229,-7.29168 30.3229,-3.5354c0,3.75627 -13.56991,10.60621 -30.3229,10.60621z" opacity="undefined" stroke-width="0" fill="#6b1313"/>
   <path stroke="#ffffff" id="svg_7" d="m34.28872,18.02381c-2.25376,0 -16.86115,1.19449 -13.59771,-2.44759c3.26345,-3.64208 11.34394,-6.79885 13.59771,-6.79885c2.25376,0 4.07931,2.06896 4.07931,4.62322c0,2.55427 -1.82555,4.62322 -4.07931,4.62322z" opacity="undefined" stroke-width="0" fill="#f2687c"/>
   <path stroke="#2ba51d" id="svg_10" d="m48.26882,31.78975c-12.22591,0 -11.55805,-1.07429 -11.01414,-5.43908c0.54391,-4.36479 5.31512,-2.17563 10.19828,-2.17563c4.88315,0 11.83,-2.46111 12.91782,2.99149c1.08782,5.4526 0.12396,4.62322 -12.10196,4.62322z" opacity="undefined" stroke-width="0" fill="#4f0d0d"/>
   <path stroke="#2ba51d" id="svg_6" d="m49.2462,38.42038c-4.80803,0 -8.70253,-2.25151 -8.70253,-5.03116c0,-2.77964 -11.33492,-3.67139 8.43058,-4.21529c19.7655,-0.54391 8.97449,1.43565 8.97449,4.21529c0,2.77964 -3.8945,5.03116 -8.70253,5.03116z" opacity="undefined" stroke-width="0" fill="#f754be"/>
   <ellipse stroke="#2ba51d" opacity="undefined" ry="3.94333" rx="0.95184" id="svg_11" cy="33.55745" cx="49.62859" stroke-width="0" fill="#b23a88"/>
  </g>
 </g>

</svg>