<svg width="100.00000000000001" height="100.00000000000001" xmlns="http://www.w3.org/2000/svg">
 <g>
  <title>Layer 1</title>
  <path transform="rotate(-45 70.9584 52.284)" fill="#2c961e" stroke-width="4" opacity="undefined" d="m84.78409,68.8616c-2.54746,1.99029 -18.01007,3.56532 -15.06125,-9.77342c2.94882,-13.33872 -18.8815,-21.08733 -11.41299,-24.11205c7.46853,-3.02473 22.67109,6.13001 20.40255,16.60996c-2.26854,10.47995 8.61915,15.28521 6.07168,17.27551l0.00001,0z" id="svg_12" stroke="#ffffff"/>
  <path transform="rotate(45 29.639 53.2661)" fill="#2c961e" stroke-width="4" opacity="undefined" d="m15.74619,69.75282c2.83654,2.21615 19.47545,4.7102 15.58449,-9.36462c-3.89097,-14.07481 19.05106,-20.95485 10.88974,-24.52086c-8.16133,-3.566 -23.93116,5.14554 -20.9258,16.20116c3.00536,11.05561 -8.38498,15.46816 -5.54844,17.68432l0.00001,0z" id="svg_3" stroke="#ffffff"/>
  <path fill="#2ba51d" stroke-width="4" opacity="undefined" d="m50.06206,96.34662c-32.39554,-0.87724 -5.48249,5.16262 -12.82525,-24.47588c-7.34276,-29.6385 8.31772,-37.52968 12.82525,-37.52968c4.50753,0 17.39608,11.15463 10.32528,36.98577c-7.0708,25.83114 22.07026,25.89703 -10.32528,25.01979z" id="svg_1" stroke="#ffffff"/>
  <path fill="#c1223a" stroke-width="4" opacity="undefined" d="m47.07057,50.99524c-28.99543,0 -42.42486,-24.51282 -23.38806,-33.83876c19.03679,-9.32594 10.70989,0.32853 23.93197,0.32853c13.22208,0 6.5269,-9.65448 25.5637,2.95679c19.03679,12.61126 2.88782,30.55345 -26.1076,30.55345l-0.00001,-0.00001z" id="svg_4" stroke="#ffffff"/>
  <path stroke="#2ba51d" fill="#6b1313" stroke-width="0" opacity="undefined" d="m48.29436,44.8276c-16.75298,0 -30.3229,-9.1955 -30.3229,-14.23799c0,-5.04249 4.47305,4.74599 30.3229,4.74599c25.84985,0 30.3229,-9.7885 30.3229,-4.74599c0,5.04249 -13.56991,14.23799 -30.3229,14.23799z" id="svg_5"/>
  <path fill="#f2687c" stroke-width="0" opacity="undefined" d="m34.28872,27.60717c-2.25376,0 -16.86115,1.19449 -13.59771,-2.44759c3.26345,-3.64208 11.34394,-6.79885 13.59771,-6.79885c2.25376,0 4.07931,2.06896 4.07931,4.62322c0,2.55427 -1.82555,4.62322 -4.07931,4.62322z" id="svg_7" stroke="#ffffff"/>
  <path id="svg_6" d="m48.61962,44.52393c-7.36641,0 -16.83318,-1.17817 -14.49987,-3.24997c2.33331,-2.0718 7.13345,-4.24996 14.49987,-4.24996c7.36641,0 12.83321,1.84483 14.8332,3.91663c1.99998,2.0718 -7.46678,3.5833 -14.8332,3.5833z" opacity="undefined" stroke-width="0" stroke="#2ba51d" fill="#490e0e"/>
 </g>

</svg>