<svg width="99.99999999999999" height="99.99999999999999" xmlns="http://www.w3.org/2000/svg">
 <g>
  <title>Layer 1</title>
  <path fill="#2ba51d" stroke-width="4" opacity="undefined" d="m50.06206,96.34662c-27.89558,-0.54391 -2.81739,5.16262 -10.16015,-24.47588c-7.34276,-29.6385 5.65262,-37.52968 10.16015,-37.52968c4.50753,0 17.23095,11.15463 10.16015,36.98577c-7.0708,25.83114 17.73543,25.5637 -10.16015,25.01979z" id="svg_1" stroke="#ffffff"/>
  <path transform="rotate(30.9696 60.6172 53.6183)" fill="#2c961e" stroke-width="4" opacity="undefined" d="m74.44288,70.19595c-2.54746,1.99029 -18.01007,3.56532 -15.06125,-9.77342c2.94882,-13.33872 -18.8815,-21.08733 -11.41299,-24.11205c7.46853,-3.02473 22.67109,6.13001 20.40255,16.60996c-2.26854,10.47995 8.61915,15.28521 6.07168,17.27551l0.00001,0z" id="svg_12" stroke="#ffffff"/>
  <path transform="rotate(-31.6456 38.6458 52.9325)" fill="#2c961e" stroke-width="4" opacity="undefined" d="m24.75305,69.41923c2.83654,2.21615 19.47545,4.7102 15.58449,-9.36462c-3.89097,-14.07481 19.05106,-20.95485 10.88974,-24.52086c-8.16133,-3.566 -23.93116,5.14554 -20.9258,16.20116c3.00536,11.05561 -8.38498,15.46816 -5.54844,17.68432l0.00001,0z" id="svg_3" stroke="#ffffff"/>
  <path stroke="#ffffff" fill="#c1223a" stroke-width="4" opacity="undefined" d="m47.1337,43.07982c-27.2523,0 -39.87439,-24.51282 -21.98203,-33.83876c17.89235,-9.32594 10.06604,0.32853 22.49325,0.32853c12.4272,0 6.13452,-9.65448 24.02688,2.95679c17.89235,12.61126 2.71421,30.55345 -24.53808,30.55345l-0.00001,-0.00001z" id="svg_4"/>
  <path stroke="#2ba51d" fill="#6b1313" stroke-width="0" opacity="undefined" d="m47.62719,32.74555c-15.64717,0 -28.32138,-6.84994 -28.32138,-10.60621c0,-3.75627 4.1778,3.5354 28.32138,3.5354c24.14358,0 28.32138,-7.29168 28.32138,-3.5354c0,3.75627 -12.6742,10.60621 -28.32138,10.60621z" id="svg_5"/>
  <path stroke="#ffffff" fill="#f2687c" stroke-width="0" opacity="undefined" d="m34.33001,19.35816c-2.04665,0 -15.31167,1.19449 -12.34813,-2.44759c2.96355,-3.64208 10.30147,-6.79885 12.34813,-6.79885c2.04665,0 3.70444,2.06896 3.70444,4.62322c0,2.55427 -1.65779,4.62322 -3.70444,4.62322z" id="svg_7"/>
 </g>

</svg>