<svg width="100.00000000000001" height="100.00000000000001" xmlns="http://www.w3.org/2000/svg">
 <g>
  <title>Layer 1</title>
  <g stroke="null" id="svg_9">
   <path stroke="#ffffff" fill="#c1223a" stroke-width="4" opacity="undefined" d="m49.07339,68.95006c-25.58444,0 -37.43405,-24.51282 -20.63672,-33.83876c16.79732,-9.32594 9.44999,0.32853 21.11664,0.32853c11.66665,0 5.75908,-9.65448 22.55642,2.95679c16.79732,12.61126 2.5481,30.55345 -23.03633,30.55345l-0.00001,-0.00001z" id="svg_4"/>
   <path stroke="#2ba51d" fill="#6b1313" stroke-width="0" opacity="undefined" d="m50.15322,55.11582c-14.78218,0 -26.75575,-4.11346 -26.75575,-6.36913c0,-2.25568 3.94685,2.12304 26.75575,2.12304c22.8089,0 26.75575,-4.37873 26.75575,-2.12304c0,2.25568 -11.97356,6.36913 -26.75575,6.36913z" id="svg_5"/>
   <path stroke="#ffffff" fill="#f2687c" stroke-width="0" opacity="undefined" d="m37.79519,45.56199c-1.98863,0 -14.87762,1.19449 -11.99809,-2.44759c2.87954,-3.64208 10.00945,-6.79885 11.99809,-6.79885c1.98863,0 3.59942,2.06896 3.59942,4.62322c0,2.55427 -1.61079,4.62322 -3.59942,4.62322z" id="svg_7"/>
  </g>
 </g>

</svg>